<svg xmlns="http://www.w3.org/2000/svg" width="600" height="340" viewBox="0 0 600 340" fill="none">
  <style>
    text { font-family: 'Noto Sans JP', 'Inter', sans-serif; }
    .tag { font-size: 10px; fill: #999999; font-weight: 600; letter-spacing: 0.1em; }
    .label { font-size: 12px; fill: #1a1a1a; font-weight: 500; }
    .sublabel { font-size: 11px; fill: #999999; }
  </style>

  <text x="40" y="28" class="tag">CHAT AI</text>
  <line x1="40" y1="38" x2="560" y2="38" stroke="#e0e0e0" stroke-width="1"/>

  <rect x="40" y="56" width="100" height="42" rx="0" fill="#f5f5f5" stroke="#e0e0e0" stroke-width="1"/>
  <text x="90" y="82" class="label" text-anchor="middle">???</text>

  <line x1="140" y1="77" x2="178" y2="77" stroke="#cccccc" stroke-width="1.5"/>
  <polygon points="178,73 186,77 178,81" fill="#cccccc"/>

  <rect x="188" y="56" width="100" height="42" rx="0" fill="#f5f5f5" stroke="#e0e0e0" stroke-width="1"/>
  <text x="238" y="82" class="label" text-anchor="middle">??</text>

  <line x1="288" y1="77" x2="326" y2="77" stroke="#cccccc" stroke-width="1.5"/>
  <polygon points="326,73 334,77 326,81" fill="#cccccc"/>

  <rect x="336" y="56" width="100" height="42" rx="0" fill="#f5f5f5" stroke="#e0e0e0" stroke-width="1"/>
  <text x="386" y="82" class="label" text-anchor="middle">AI ???</text>

  <line x1="436" y1="77" x2="474" y2="77" stroke="#cccccc" stroke-width="1.5"/>
  <polygon points="474,73 482,77 474,81" fill="#cccccc"/>

  <rect x="484" y="56" width="76" height="42" rx="0" fill="#ffffff" stroke="#cccccc" stroke-width="1" stroke-dasharray="4,3"/>
  <text x="522" y="74" class="sublabel" text-anchor="middle">????</text>
  <text x="522" y="88" class="sublabel" text-anchor="middle">???</text>

  <text x="40" y="126" class="sublabel">AI ?????????????????</text>

  <text x="40" y="176" class="tag">AI AGENT</text>
  <line x1="40" y1="186" x2="560" y2="186" stroke="#e0e0e0" stroke-width="1"/>

  <rect x="40" y="206" width="100" height="42" rx="0" fill="#f5f5f5" stroke="#e0e0e0" stroke-width="1"/>
  <text x="90" y="232" class="label" text-anchor="middle">???</text>

  <line x1="140" y1="227" x2="178" y2="227" stroke="#cccccc" stroke-width="1.5"/>
  <polygon points="178,223 186,227 178,231" fill="#cccccc"/>

  <rect x="188" y="202" width="120" height="50" rx="0" fill="#f5f5f5" stroke="#e0e0e0" stroke-width="1"/>
  <text x="248" y="224" class="label" text-anchor="middle">?LP ?????</text>
  <text x="248" y="240" class="sublabel" text-anchor="middle">??????</text>

  <line x1="308" y1="227" x2="346" y2="227" stroke="#cccccc" stroke-width="1.5"/>
  <polygon points="346,223 354,227 346,231" fill="#cccccc"/>

  <rect x="356" y="196" width="204" height="108" rx="0" fill="#1a1a1a"/>
  <text x="458" y="222" text-anchor="middle" font-size="11" fill="#e0e0e0" font-weight="500" font-family="Noto Sans JP, sans-serif">AI ??????</text>
  <line x1="376" y1="234" x2="540" y2="234" stroke="#444444" stroke-width="0.5"/>
  <text x="376" y="254" font-size="10.5" fill="#999999" font-family="Noto Sans JP, sans-serif">???????</text>
  <text x="376" y="272" font-size="10.5" fill="#999999" font-family="Noto Sans JP, sans-serif">?????????</text>
  <text x="376" y="290" font-size="10.5" fill="#999999" font-family="Noto Sans JP, sans-serif">???????</text>

  <text x="40" y="330" class="sublabel">AI ??????????????????????????</text>
</svg>
