<svg xmlns="http://www.w3.org/2000/svg" width="600" height="500" viewBox="0 0 600 500" fill="none">
  <style>
    text { font-family: 'Noto Sans JP', 'Inter', sans-serif; }
    .tag { font-size: 9px; fill: #999999; font-weight: 600; letter-spacing: 0.1em; }
    .step-title { font-size: 12px; fill: #1a1a1a; font-weight: 500; }
    .step-desc { font-size: 11px; fill: #999999; }
    .location { font-size: 9px; fill: #cccccc; font-weight: 500; letter-spacing: 0.06em; }
  </style>

  <rect x="40" y="20" width="520" height="52" rx="0" fill="#f5f5f5" stroke="#e0e0e0" stroke-width="1"/>
  <text x="60" y="42" class="tag">STEP 1</text>
  <text x="130" y="42" class="step-title">?????????</text>
  <text x="60" y="58" class="step-desc">??????LP?????????????????</text>

  <line x1="300" y1="72" x2="300" y2="92" stroke="#cccccc" stroke-width="1.5"/>
  <polygon points="296,92 300,100 304,92" fill="#cccccc"/>

  <rect x="40" y="102" width="520" height="52" rx="0" fill="#1a1a1a"/>
  <text x="60" y="124" class="tag" fill="#666666">STEP 2</text>
  <text x="130" y="124" class="step-title" fill="#e0e0e0">AI ???????</text>
  <text x="60" y="142" class="step-desc" fill="#666666">?HTML?CSS?JS ?????ģ?</text>
  <text x="510" y="142" class="location" fill="#666666" text-anchor="end">SERVER</text>

  <line x1="300" y1="154" x2="300" y2="174" stroke="#cccccc" stroke-width="1.5"/>
  <polygon points="296,174 300,182 304,174" fill="#cccccc"/>

  <rect x="24" y="96" width="6" height="310" rx="0" fill="#1bcca9"/>
  <text x="15" y="256" font-size="9" fill="#1bcca9" text-anchor="middle" font-weight="600" letter-spacing="0.1em" font-family="Noto Sans JP, sans-serif" transform="rotate(-90,15,256)">LOOP</text>

  <rect x="40" y="184" width="520" height="52" rx="0" fill="#ffffff" stroke="#e0e0e0" stroke-width="1"/>
  <text x="60" y="206" class="tag">STEP 3</text>
  <text x="130" y="206" class="step-title">??????????</text>
  <text x="60" y="224" class="step-desc">ls ???????????????</text>
  <text x="510" y="224" class="location" text-anchor="end">YOUR PC</text>

  <line x1="300" y1="236" x2="300" y2="256" stroke="#cccccc" stroke-width="1.5"/>
  <polygon points="296,256 300,264 304,256" fill="#cccccc"/>

  <rect x="40" y="266" width="520" height="52" rx="0" fill="#ffffff" stroke="#e0e0e0" stroke-width="1"/>
  <text x="60" y="288" class="tag">STEP 4</text>
  <text x="130" y="288" class="step-title">??????????</text>
  <text x="60" y="306" class="step-desc">index.html?style.css?script.js ???</text>
  <text x="510" y="306" class="location" text-anchor="end">YOUR PC</text>

  <line x1="300" y1="318" x2="300" y2="338" stroke="#cccccc" stroke-width="1.5"/>
  <polygon points="296,338 300,346 304,338" fill="#cccccc"/>

  <rect x="40" y="348" width="520" height="52" rx="0" fill="#ffffff" stroke="#e0e0e0" stroke-width="1"/>
  <text x="60" y="370" class="tag">STEP 5</text>
  <text x="130" y="370" class="step-title">???????</text>
  <text x="60" y="388" class="step-desc">?????? ? ????? ? ????? ? ???ģ</text>
  <text x="510" y="388" class="location" text-anchor="end">YOUR PC</text>

  <line x1="300" y1="400" x2="300" y2="420" stroke="#cccccc" stroke-width="1.5"/>
  <polygon points="296,420 300,428 304,420" fill="#cccccc"/>

  <rect x="40" y="430" width="520" height="50" rx="0" fill="#f5f5f5" stroke="#e0e0e0" stroke-width="1"/>
  <text x="60" y="452" class="tag">STEP 6</text>
  <text x="130" y="452" class="step-title">????</text>
  <text x="280" y="452" class="step-desc">?????????????????????</text>
</svg>
