<svg xmlns="http://www.w3.org/2000/svg" width="600" height="420" viewBox="0 0 600 420" fill="none">
  <style>
    text { font-family: 'Inter', 'Noto Sans JP', -apple-system, sans-serif; }
    .label { font-size: 13px; fill: #2a2a2a; font-weight: 600; }
    .sublabel { font-size: 11px; fill: #8a8580; }
    .note { font-size: 11px; fill: #8a8580; font-style: italic; }
  </style>

  <!-- Your PC box -->
  <rect x="40" y="30" width="520" height="200" rx="2" stroke="#c4bdb5" stroke-width="1.5" fill="#ffffff"/>
  <text x="60" y="58" class="label" font-size="12" letter-spacing="0.08em" fill="#8a8580">YOUR PC</text>

  <!-- Claude Code block -->
  <rect x="80" y="85" width="160" height="52" rx="2" fill="#f0ede9" stroke="#c4bdb5" stroke-width="1"/>
  <text x="160" y="116" class="label" text-anchor="middle">Claude Code</text>

  <!-- Arrow from Claude Code to Working Folder -->
  <line x1="240" y1="111" x2="320" y2="111" stroke="#c4bdb5" stroke-width="1.5"/>
  <polygon points="320,106 330,111 320,116" fill="#c4bdb5"/>

  <!-- Working Folder block -->
  <rect x="330" y="85" width="200" height="52" rx="2" fill="#f0ede9" stroke="#c4bdb5" stroke-width="1"/>
  <text x="430" y="108" class="label" text-anchor="middle">\m???</text>
  <text x="430" y="125" class="sublabel" text-anchor="middle">????M</text>

  <!-- Note: AI brain is not here -->
  <text x="160" y="168" class="note" text-anchor="middle">AI n-3oSSkojD</text>
  <line x1="160" y1="137" x2="160" y2="155" stroke="#c4bdb5" stroke-width="1" stroke-dasharray="4,3"/>

  <!-- Vertical connection line -->
  <line x1="160" y1="230" x2="160" y2="290" stroke="#c4bdb5" stroke-width="1.5"/>
  <polygon points="155,290 160,300 165,290" fill="#c4bdb5"/>

  <!-- Internet label -->
  <text x="180" y="268" class="sublabel">??????L1</text>

  <!-- Anthropic Server box -->
  <rect x="40" y="310" width="520" height="80" rx="2" stroke="#2a2a2a" stroke-width="1.5" fill="#2a2a2a"/>
  <text x="300" y="348" class="label" text-anchor="middle" fill="#d5d0cb" font-size="12" letter-spacing="0.08em">ANTHROPIC SERVER</text>
  <text x="300" y="370" text-anchor="middle" font-size="11" fill="#8a8580">SSgHfD?
</text>
</svg>
